<?xml version="1.0" standalone="no"?><!DOCTYPE svg PUBLIC "-//W3C//DTD SVG 1.1//EN" "http://www.w3.org/Graphics/SVG/1.1/DTD/svg11.dtd"><svg height="1125" node-id="1" sillyvg="true" template-height="1125" template-width="750" version="1.1" viewBox="0 0 750 1125" width="750" xmlns="http://www.w3.org/2000/svg" xmlns:xlink="http://www.w3.org/1999/xlink"><defs node-id="220"><clipPath id="clip-path" node-id="5"><path d="M 182.39 105.26 L 562.77 105.26 C 623.01 105.26 671.84 154.09 671.84 214.33 L 671.84 926.38 C 671.84 986.62 623.01 1035.45 562.77 1035.45 L 182.39 1035.45 C 122.15 1035.45 73.32 986.62 73.32 926.38 L 73.32 214.33 C 73.32 154.09 122.15 105.26 182.39 105.26 Z" fill="#000000" fill-rule="nonzero" node-id="223" stroke="none" target-height="930.18994" target-width="598.52" target-x="73.32" target-y="105.26"></path></clipPath></defs><g node-id="672"><path d="M 0.00 0.00 L 750.00 0.00 L 750.00 1125.00 L 0.00 1125.00 Z" fill="#ffffff" fill-rule="nonzero" group-id="1" id="背景" node-id="11" stroke="none" target-height="1125" target-width="750" target-x="0" target-y="0"></path><path d="M 182.39 105.26 L 562.77 105.26 C 623.01 105.26 671.84 154.09 671.84 214.33 L 671.84 926.38 C 671.84 986.62 623.01 1035.45 562.77 1035.45 L 182.39 1035.45 C 122.15 1035.45 73.32 986.62 73.32 926.38 L 73.32 214.33 C 73.32 154.09 122.15 105.26 182.39 105.26 Z" fill="#862323" fill-rule="nonzero" group-id="1" node-id="230" stroke="none" target-height="930.18994" target-width="598.52" target-x="73.32" target-y="105.26"></path><g node-id="673"><g clip-path="url(#clip-path)" group-id="1,2" id="蝴蝶蓝" node-id="14"><path d="M 616.50 946.50 L 627.50 1021.66 C 628.05 1024.35 643.61 1029.50 661.50 1029.50 C 679.60 1029.50 693.30 1024.29 693.50 1021.56 L 705.50 946.50" fill="#154e6b" fill-rule="nonzero" group-id="1,2,19" node-id="235" stroke="#231815" stroke-linecap="round" stroke-width="3" target-height="83" target-width="89" target-x="616.5" target-y="946.5"></path><path d="M 620.50 849.50 C 620.50 849.50 602.50 919.50 639.50 940.50 C 676.50 961.50 658.50 892.50 620.50 849.50 Z" fill="#2c774e" fill-rule="nonzero" group-id="1,2,19" node-id="237" stroke="#231815" stroke-linecap="round" stroke-width="3" target-height="112" target-width="74" target-x="602.5" target-y="849.5"></path><path d="M 653.50 940.50 C 653.50 940.50 648.50 889.50 685.50 869.50 C 691.50 892.50 685.50 951.50 653.50 940.50 Z" fill="#2c774e" fill-rule="nonzero" group-id="1,2,19" node-id="239" stroke="#231815" stroke-linecap="round" stroke-width="3" target-height="82" target-width="43" target-x="648.5" target-y="869.5"></path><path d="M 705.50 947.00 C 705.50 951.69 685.58 955.50 661.00 955.50 C 636.42 955.50 616.50 951.69 616.50 947.00 C 616.50 942.31 636.42 938.50 661.00 938.50 C 685.58 938.50 705.50 942.31 705.50 947.00 Z" fill="#154e6b" fill-rule="nonzero" group-id="1,2,19" node-id="241" stroke="#231815" stroke-linecap="round" stroke-width="3" target-height="17" target-width="89" target-x="616.5" target-y="938.5"></path><path d="M 693.50 946.50 C 693.50 948.16 678.95 949.50 661.00 949.50 C 643.05 949.50 628.50 948.16 628.50 946.50 C 628.50 944.84 643.05 943.50 661.00 943.50 C 678.95 943.50 693.50 944.84 693.50 946.50 Z" fill="none" group-id="1,2,19" node-id="243" stroke="#231815" stroke-linecap="round" stroke-width="3" target-height="6" target-width="65" target-x="628.5" target-y="943.5"></path><path d="M 633.50 947.50 C 633.50 947.50 597.50 945.50 581.50 901.50 C 605.50 907.50 612.50 901.50 652.50 948.50 Z" fill="#2c774e" fill-rule="nonzero" group-id="1,2,19" node-id="245" stroke="#231815" stroke-linecap="round" stroke-width="3" target-height="47" target-width="71" target-x="581.5" target-y="901.5"></path><path d="M 600.50 768.50 C 600.50 768.50 633.50 739.50 646.50 791.50 C 659.50 843.50 660.50 938.82 657.50 941.16 L 648.01 941.85 C 656.53 943.21 651.50 869.50 642.50 807.50 C 633.50 745.50 600.50 776.50 600.50 776.50" fill="#2c774e" fill-rule="nonzero" group-id="1,2,19" node-id="247" stroke="#231815" stroke-linecap="round" stroke-width="3" target-height="203.71002" target-width="60" target-x="600.5" target-y="739.5"></path><path d="M 657.50 946.50 C 657.50 946.50 686.50 893.50 718.50 889.50 C 716.50 912.50 696.50 944.50 688.50 946.50 C 680.50 948.50 661.50 950.50 657.50 946.50 Z" fill="#2c774e" fill-rule="nonzero" group-id="1,2,19" node-id="249" stroke="#231815" stroke-linecap="round" stroke-width="3" target-height="61" target-width="61" target-x="657.5" target-y="889.5"></path></g></g><g node-id="674"><path d="M 656.50 446.50 L 89.50 446.50 L 120.50 415.50 L 626.50 415.50 L 656.50 446.50 Z" fill="#163240" fill-rule="nonzero" group-id="1,3" node-id="254" stroke="#231815" stroke-linecap="round" stroke-width="3.52" target-height="31" target-width="567" target-x="89.5" target-y="415.5"></path><path d="M 656.50 481.50 L 656.50 446.50 L 89.50 446.50 L 89.50 503.50 L 317.63 565.00 L 442.19 566.20 L 656.50 500.50 L 656.50 481.50 Z" fill="#163240" fill-rule="nonzero" group-id="1,3" node-id="256" stroke="#231815" stroke-linecap="round" stroke-width="3.52" target-height="119.70001" target-width="567" target-x="89.5" target-y="446.5"></path><path d="M 312.50 454.50 L 369.50 454.50 L 369.50 555.50 L 312.50 555.50 Z" fill="none" group-id="1,3" node-id="258" stroke="#231815" stroke-linecap="round" stroke-width="3.3" target-height="101" target-width="57" target-x="312.5" target-y="454.5"></path><path d="M 378.50 454.50 L 435.50 454.50 L 435.50 555.50 L 378.50 555.50 Z" fill="none" group-id="1,3" node-id="260" stroke="#231815" stroke-linecap="round" stroke-width="3.3" target-height="101" target-width="57" target-x="378.5" target-y="454.5"></path><path d="M 402.50 507.00 C 402.50 510.59 399.59 513.50 396.00 513.50 C 392.41 513.50 389.50 510.59 389.50 507.00 C 389.50 503.41 392.41 500.50 396.00 500.50 C 399.59 500.50 402.50 503.41 402.50 507.00 Z" fill="none" group-id="1,3" node-id="262" stroke="#231815" stroke-linecap="round" stroke-width="3.3" target-height="13" target-width="13" target-x="389.5" target-y="500.5"></path><path d="M 359.50 507.00 C 359.50 510.59 356.59 513.50 353.00 513.50 C 349.41 513.50 346.50 510.59 346.50 507.00 C 346.50 503.41 349.41 500.50 353.00 500.50 C 356.59 500.50 359.50 503.41 359.50 507.00 Z" fill="none" group-id="1,3" node-id="264" stroke="#231815" stroke-linecap="round" stroke-width="3.3" target-height="13" target-width="13" target-x="346.5" target-y="500.5"></path></g><g node-id="675"><path d="M 210.50 223.50 L 514.50 223.50 L 514.50 413.48 L 210.50 413.48 Z" fill="#262521" fill-rule="nonzero" group-id="1,4" node-id="268" stroke="#231815" stroke-linecap="round" stroke-width="3.3" target-height="189.98001" target-width="304" target-x="210.5" target-y="223.5"></path><path d="M 221.00 234.00 L 503.00 234.00 L 503.00 403.00 L 221.00 403.00 Z" fill="#cb3617" fill-rule="nonzero" group-id="1,4" node-id="270" stroke="#231815" stroke-linecap="round" stroke-width="3" target-height="169" target-width="282" target-x="221" target-y="234"></path><path d="M 316.50 420.50 L 407.50 420.50 L 407.50 433.50 L 316.50 433.50 Z" fill="#262521" fill-rule="nonzero" group-id="1,4" node-id="272" stroke="#231815" stroke-linecap="round" stroke-width="3.3" target-height="13" target-width="91" target-x="316.5" target-y="420.5"></path><path d="M 355.50 413.50 L 367.50 413.50 L 367.50 423.50 L 355.50 423.50 Z" fill="#262521" fill-rule="nonzero" group-id="1,4" node-id="274" stroke="#231815" stroke-linecap="round" stroke-width="3.3" target-height="10" target-width="12" target-x="355.5" target-y="413.5"></path><path d="M 377.50 303.50 C 377.50 303.50 373.50 310.50 380.50 305.50 C 387.50 300.50 386.50 289.50 376.50 294.50 C 366.50 299.50 354.50 318.50 364.50 324.50 C 370.50 327.50 377.50 322.50 377.50 322.50 C 377.50 322.50 380.50 319.50 382.50 323.50 C 384.50 327.50 374.50 335.50 368.50 335.50 C 362.50 335.50 355.50 334.50 353.50 324.50 C 351.50 314.50 360.50 300.50 360.50 300.50 C 360.50 300.50 371.50 284.50 380.50 286.50 C 389.50 288.50 390.50 293.50 390.50 296.50 C 390.50 299.50 389.50 314.50 378.50 313.50 C 367.50 312.50 371.50 305.50 371.50 305.50 C 371.50 305.50 376.50 298.50 377.50 303.50 Z" fill="#ffc200" fill-rule="nonzero" group-id="1,4" node-id="276" stroke="#231815" stroke-linecap="round" stroke-width="3" target-height="51" target-width="39" target-x="351.5" target-y="284.5"></path><path d="M 392.50 297.50 C 392.50 297.50 411.50 288.50 411.50 299.50 C 411.50 310.50 388.50 319.50 388.50 319.50 C 388.50 319.50 386.50 324.50 392.50 324.50 C 398.50 324.50 418.50 324.50 421.50 329.50 C 424.50 334.50 430.50 325.50 422.50 322.50 C 417.32 320.62 411.96 319.28 406.50 318.50 C 406.50 318.50 429.50 306.50 416.50 292.50 C 403.50 278.50 390.50 293.43 390.50 293.43 Z" fill="#ffc200" fill-rule="nonzero" group-id="1,4" node-id="278" stroke="#231815" stroke-linecap="round" stroke-width="3" target-height="56" target-width="44" target-x="386.5" target-y="278.5"></path><path d="M 296.50 280.50 C 296.50 280.50 313.50 283.50 316.50 289.50 C 312.50 292.50 307.50 295.50 308.50 301.50 C 309.50 307.50 314.50 311.50 319.50 310.50 C 324.50 309.50 328.50 307.58 328.50 301.50 C 328.50 295.42 325.50 293.50 325.50 293.50 C 331.15 294.42 335.58 298.85 336.50 304.50 C 338.50 314.50 327.50 322.50 327.50 322.50 C 327.50 322.50 311.50 332.50 308.50 332.50 C 305.50 332.50 305.50 337.50 308.50 337.50 C 311.50 337.50 325.50 332.50 329.50 332.50 C 333.50 332.50 347.50 334.50 350.50 334.50 C 353.50 334.50 356.50 329.50 351.50 328.50 C 346.50 327.50 341.50 326.50 339.50 327.50 C 339.50 327.50 350.50 320.50 343.50 300.50 C 338.50 287.50 325.50 287.50 325.50 287.50 C 325.50 287.50 316.50 276.50 296.50 280.50 Z" fill="#ffc200" fill-rule="nonzero" group-id="1,4" node-id="280" stroke="#231815" stroke-linecap="round" stroke-width="3" target-height="61" target-width="60" target-x="296.5" target-y="276.5"></path><path d="M 322.50 299.50 C 322.50 301.71 320.71 303.50 318.50 303.50 C 316.29 303.50 314.50 301.71 314.50 299.50 C 314.50 297.29 316.29 295.50 318.50 295.50 C 320.71 295.50 322.50 297.29 322.50 299.50 Z" fill="none" group-id="1,4" node-id="282" stroke="#231815" stroke-linecap="round" stroke-width="3.3" target-height="8" target-width="8" target-x="314.5" target-y="295.5"></path><path d="M 429.50 288.50 C 429.50 288.50 433.50 300.50 425.50 309.50 C 417.50 318.50 430.50 318.50 432.50 314.50 C 434.50 310.50 442.50 295.50 429.50 288.50 Z" fill="#ffc200" fill-rule="nonzero" group-id="1,4" node-id="284" stroke="#231815" stroke-linecap="round" stroke-width="3" target-height="30" target-width="25" target-x="417.5" target-y="288.5"></path></g><g node-id="676"><path d="M 144.67 223.50 L 191.33 223.50 C 195.29 223.50 198.50 226.71 198.50 230.67 L 198.50 418.33 C 198.50 422.29 195.29 425.50 191.33 425.50 L 144.67 425.50 C 140.71 425.50 137.50 422.29 137.50 418.33 L 137.50 230.67 C 137.50 226.71 140.71 223.50 144.67 223.50 Z" fill="#63231a" fill-rule="nonzero" group-id="1,5" node-id="288" stroke="#231815" stroke-linecap="round" stroke-width="3.3" target-height="202" target-width="61" target-x="137.5" target-y="223.5"></path><path d="M 192.50 257.00 C 192.50 270.53 181.53 281.50 168.00 281.50 C 154.47 281.50 143.50 270.53 143.50 257.00 C 143.50 243.47 154.47 232.50 168.00 232.50 C 181.53 232.50 192.50 243.47 192.50 257.00 Z" fill="#d8cebf" fill-rule="nonzero" group-id="1,5" node-id="290" stroke="#231815" stroke-linecap="round" stroke-width="3.3" target-height="49" target-width="49" target-x="143.5" target-y="232.5"></path><path d="M 178.50 256.50 C 178.50 262.58 173.58 267.50 167.50 267.50 C 161.42 267.50 156.50 262.58 156.50 256.50 C 156.50 250.42 161.42 245.50 167.50 245.50 C 173.58 245.50 178.50 250.42 178.50 256.50 Z" fill="#262521" fill-rule="nonzero" group-id="1,5" node-id="292" stroke="#231815" stroke-linecap="round" stroke-width="3.3" target-height="22" target-width="22" target-x="156.5" target-y="245.5"></path><path d="M 192.50 314.00 C 192.50 327.53 181.53 338.50 168.00 338.50 C 154.47 338.50 143.50 327.53 143.50 314.00 C 143.50 300.47 154.47 289.50 168.00 289.50 C 181.53 289.50 192.50 300.47 192.50 314.00 Z" fill="#d8cebf" fill-rule="nonzero" group-id="1,5" node-id="294" stroke="#231815" stroke-linecap="round" stroke-width="3.3" target-height="49" target-width="49" target-x="143.5" target-y="289.5"></path><path d="M 178.50 313.50 C 178.50 319.58 173.58 324.50 167.50 324.50 C 161.42 324.50 156.50 319.58 156.50 313.50 C 156.50 307.42 161.42 302.50 167.50 302.50 C 173.58 302.50 178.50 307.42 178.50 313.50 Z" fill="#262521" fill-rule="nonzero" group-id="1,5" node-id="296" stroke="#231815" stroke-linecap="round" stroke-width="3.3" target-height="22" target-width="22" target-x="156.5" target-y="302.5"></path></g><g node-id="677"><path d="M 533.67 223.50 L 580.33 223.50 C 584.29 223.50 587.50 226.71 587.50 230.67 L 587.50 418.33 C 587.50 422.29 584.29 425.50 580.33 425.50 L 533.67 425.50 C 529.71 425.50 526.50 422.29 526.50 418.33 L 526.50 230.67 C 526.50 226.71 529.71 223.50 533.67 223.50 Z" fill="#63231a" fill-rule="nonzero" group-id="1,6" node-id="300" stroke="#231815" stroke-linecap="round" stroke-width="3.3" target-height="202" target-width="61" target-x="526.5" target-y="223.5"></path><path d="M 581.50 257.00 C 581.50 270.53 570.53 281.50 557.00 281.50 C 543.47 281.50 532.50 270.53 532.50 257.00 C 532.50 243.47 543.47 232.50 557.00 232.50 C 570.53 232.50 581.50 243.47 581.50 257.00 Z" fill="#d8cebf" fill-rule="nonzero" group-id="1,6" node-id="302" stroke="#231815" stroke-linecap="round" stroke-width="3.3" target-height="49" target-width="49" target-x="532.5" target-y="232.5"></path><path d="M 567.50 256.50 C 567.50 262.58 562.58 267.50 556.50 267.50 C 550.42 267.50 545.50 262.58 545.50 256.50 C 545.50 250.42 550.42 245.50 556.50 245.50 C 562.58 245.50 567.50 250.42 567.50 256.50 Z" fill="#262521" fill-rule="nonzero" group-id="1,6" node-id="304" stroke="#231815" stroke-linecap="round" stroke-width="3.3" target-height="22" target-width="22" target-x="545.5" target-y="245.5"></path><path d="M 581.50 314.00 C 581.50 327.53 570.53 338.50 557.00 338.50 C 543.47 338.50 532.50 327.53 532.50 314.00 C 532.50 300.47 543.47 289.50 557.00 289.50 C 570.53 289.50 581.50 300.47 581.50 314.00 Z" fill="#d8cebf" fill-rule="nonzero" group-id="1,6" node-id="306" stroke="#231815" stroke-linecap="round" stroke-width="3.3" target-height="49" target-width="49" target-x="532.5" target-y="289.5"></path><path d="M 567.50 313.50 C 567.50 319.58 562.58 324.50 556.50 324.50 C 550.42 324.50 545.50 319.58 545.50 313.50 C 545.50 307.42 550.42 302.50 556.50 302.50 C 562.58 302.50 567.50 307.42 567.50 313.50 Z" fill="#262521" fill-rule="nonzero" group-id="1,6" node-id="308" stroke="#231815" stroke-linecap="round" stroke-width="3.3" target-height="22" target-width="22" target-x="545.5" target-y="302.5"></path></g><path d="M 216.41 730.93 L 220.50 829.50 L 230.96 829.50 L 229.40 719.50 L 216.41 719.50 L 216.41 730.93 Z" fill="#e2e2e2" fill-rule="nonzero" group-id="1" node-id="311" stroke="#231815" stroke-linecap="round" stroke-width="3" target-height="110" target-width="14.550003" target-x="216.41" target-y="719.5"></path><path d="M 143.50 626.50 L 133.50 685.39 L 133.50 685.50 C 133.50 689.37 120.34 695.50 103.50 695.50 C 86.66 695.50 72.71 689.41 72.50 685.59 L 62.50 626.50" fill="#e15c3d" fill-rule="nonzero" group-id="1,7" node-id="314" stroke="#231815" stroke-linecap="round" stroke-width="3" target-height="69" target-width="81" target-x="62.5" target-y="626.5"></path><path d="M 143.50 626.50 C 143.50 634.23 125.37 640.50 103.00 640.50 C 80.63 640.50 62.50 634.23 62.50 626.50 C 62.50 618.77 80.63 612.50 103.00 612.50 C 125.37 612.50 143.50 618.77 143.50 626.50 Z" fill="#e15c3d" fill-rule="nonzero" group-id="1,7" node-id="316" stroke="#231815" stroke-linecap="round" stroke-width="3" target-height="28" target-width="81" target-x="62.5" target-y="612.5"></path><path d="M 135.50 625.50 C 135.50 630.47 121.17 634.50 103.50 634.50 C 85.83 634.50 71.50 630.47 71.50 625.50 C 71.50 620.53 85.83 616.50 103.50 616.50 C 121.17 616.50 135.50 620.53 135.50 625.50 Z" fill="#63231a" fill-rule="nonzero" group-id="1,7" node-id="318" stroke="#231815" stroke-linecap="round" stroke-width="3.3" target-height="18" target-width="64" target-x="71.5" target-y="616.5"></path><path d="M 141.50 496.00 C 141.50 500.69 137.69 504.50 133.00 504.50 C 128.31 504.50 124.50 500.69 124.50 496.00 C 124.50 491.31 128.31 487.50 133.00 487.50 C 137.69 487.50 141.50 491.31 141.50 496.00 Z" fill="#ff9920" fill-rule="nonzero" group-id="1,7" node-id="320" stroke="#231815" stroke-linecap="round" stroke-width="3" target-height="17" target-width="17" target-x="124.5" target-y="487.5"></path><path d="M 57.50 580.50 C 57.50 585.47 53.47 589.50 48.50 589.50 C 43.53 589.50 39.50 585.47 39.50 580.50 C 39.50 575.53 43.53 571.50 48.50 571.50 C 53.47 571.50 57.50 575.53 57.50 580.50 Z" fill="#ff9920" fill-rule="nonzero" group-id="1,7" node-id="322" stroke="#231815" stroke-linecap="round" stroke-width="3" target-height="18" target-width="18" target-x="39.5" target-y="571.5"></path><path d="M 165.50 537.00 C 165.50 540.59 162.59 543.50 159.00 543.50 C 155.41 543.50 152.50 540.59 152.50 537.00 C 152.50 533.41 155.41 530.50 159.00 530.50 C 162.59 530.50 165.50 533.41 165.50 537.00 Z" fill="#ff9920" fill-rule="nonzero" group-id="1,7" node-id="324" stroke="#231815" stroke-linecap="round" stroke-width="3" target-height="13" target-width="13" target-x="152.5" target-y="530.5"></path><path d="M 137.18 553.50 C 144.01 553.40 149.50 547.83 149.50 541.00 C 149.50 540.53 149.47 540.06 149.42 539.59 C 154.37 537.77 157.89 533.32 158.50 528.08 C 159.12 522.84 156.74 517.70 152.34 514.78 C 147.94 511.86 142.28 511.67 137.69 514.27 C 136.67 512.49 135.26 510.97 133.57 509.82 C 134.18 507.77 134.50 505.64 134.50 503.50 C 134.50 490.25 122.64 479.50 108.00 479.50 C 93.36 479.50 81.50 490.25 81.50 503.50 C 81.50 503.67 81.50 503.84 81.50 504.01 C 80.36 503.67 79.19 503.50 78.00 503.50 C 74.44 503.50 71.05 505.03 68.68 507.69 C 60.16 502.18 48.83 504.13 42.65 512.18 C 36.46 520.22 37.48 531.67 45.00 538.49 C 43.98 542.27 44.66 546.31 46.85 549.56 C 39.94 548.99 33.45 552.93 30.77 559.33 C 28.09 565.72 29.84 573.12 35.10 577.64 C 40.36 582.16 47.93 582.78 53.85 579.17 C 53.67 579.93 53.58 580.72 53.57 581.50 C 53.57 585.63 56.11 589.33 59.96 590.82 C 59.68 591.86 59.53 592.93 59.50 594.00 C 59.26 601.46 65.11 607.69 72.57 607.93 C 80.03 608.17 86.26 602.32 86.50 594.86 C 88.32 595.92 90.39 596.49 92.50 596.50 C 93.17 596.50 93.84 596.43 94.50 596.31 C 94.50 596.54 94.50 596.77 94.50 597.00 C 94.51 601.95 97.97 606.22 102.81 607.25 C 107.65 608.28 112.55 605.80 114.58 601.28 C 119.14 604.95 125.14 606.32 130.83 604.98 C 136.53 603.64 141.30 599.76 143.75 594.44 C 144.16 594.44 144.58 594.50 145.00 594.50 C 156.32 594.50 165.50 585.32 165.50 574.00 C 165.50 562.68 156.32 553.50 145.00 553.50 C 142.39 553.49 139.80 553.99 137.38 554.97 Z" fill="#2c774e" fill-rule="nonzero" group-id="1,7" node-id="326" stroke="#231815" stroke-linecap="round" stroke-width="3" target-height="128.7829" target-width="137.40985" target-x="28.090153" target-y="479.5"></path><path d="M 92.50 626.50 C 92.50 626.50 102.50 624.50 105.50 630.50" fill="none" group-id="1,7" node-id="328" stroke="#231815" stroke-linecap="round" stroke-width="3" target-height="6" target-width="13" target-x="92.5" target-y="624.5"></path><path d="M 115.50 625.50 C 115.50 625.50 106.50 622.76 103.50 628.13" fill="none" group-id="1,7" node-id="330" stroke="#231815" stroke-linecap="round" stroke-width="3" target-height="5.369995" target-width="12" target-x="103.5" target-y="622.76"></path><path d="M 100.50 625.50 L 101.50 607.50 L 107.00 607.30 L 108.50 624.50" fill="none" group-id="1,7" node-id="332" stroke="#231815" stroke-linecap="round" stroke-width="3" target-height="18.200012" target-width="8" target-x="100.5" target-y="607.3"></path><path d="M 97.50 565.00 C 97.50 570.25 93.25 574.50 88.00 574.50 C 82.75 574.50 78.50 570.25 78.50 565.00 C 78.50 559.75 82.75 555.50 88.00 555.50 C 93.25 555.50 97.50 559.75 97.50 565.00 Z" fill="#ff9920" fill-rule="nonzero" group-id="1,7" node-id="334" stroke="#231815" stroke-linecap="round" stroke-width="3" target-height="19" target-width="19" target-x="78.5" target-y="555.5"></path><path d="M 133.50 556.50 C 133.50 560.92 129.92 564.50 125.50 564.50 C 121.08 564.50 117.50 560.92 117.50 556.50 C 117.50 552.08 121.08 548.50 125.50 548.50 C 129.92 548.50 133.50 552.08 133.50 556.50 Z" fill="#ff9920" fill-rule="nonzero" group-id="1,7" node-id="336" stroke="#231815" stroke-linecap="round" stroke-width="3" target-height="16" target-width="16" target-x="117.5" target-y="548.5"></path><path d="M 112.50 520.50 C 112.50 524.92 108.92 528.50 104.50 528.50 C 100.08 528.50 96.50 524.92 96.50 520.50 C 96.50 516.08 100.08 512.50 104.50 512.50 C 108.92 512.50 112.50 516.08 112.50 520.50 Z" fill="#ff9920" fill-rule="nonzero" group-id="1,7" node-id="338" stroke="#231815" stroke-linecap="round" stroke-width="3" target-height="16" target-width="16" target-x="96.5" target-y="512.5"></path><path d="M 71.50 533.00 C 71.50 538.80 66.80 543.50 61.00 543.50 C 55.20 543.50 50.50 538.80 50.50 533.00 C 50.50 527.20 55.20 522.50 61.00 522.50 C 66.80 522.50 71.50 527.20 71.50 533.00 Z" fill="#ff9920" fill-rule="nonzero" group-id="1,7" node-id="340" stroke="#231815" stroke-linecap="round" stroke-width="3" target-height="21" target-width="21" target-x="50.5" target-y="522.5"></path><path d="M 154.50 580.50 C 154.50 584.92 150.92 588.50 146.50 588.50 C 142.08 588.50 138.50 584.92 138.50 580.50 C 138.50 576.08 142.08 572.50 146.50 572.50 C 150.92 572.50 154.50 576.08 154.50 580.50 Z" fill="#ff9920" fill-rule="nonzero" group-id="1,7" node-id="342" stroke="#231815" stroke-linecap="round" stroke-width="3" target-height="16" target-width="16" target-x="138.5" target-y="572.5"></path><path d="M 176.00 940.00 C 176.00 940.00 168.00 969.00 192.00 970.00 C 216.00 971.00 219.00 964.00 222.00 959.00 C 225.00 954.00 231.00 927.00 242.00 918.00 C 254.00 904.00 257.00 890.00 251.00 877.00 C 245.00 864.00 177.00 940.00 177.00 940.00" fill="#563d30" fill-rule="nonzero" group-id="1,8" node-id="346" stroke="#231815" stroke-linecap="round" stroke-width="3" target-height="107" target-width="89" target-x="168" target-y="864"></path><path d="M 178.00 920.00 C 178.00 920.00 188.00 859.00 228.00 864.00 C 268.00 869.00 244.00 897.00 239.00 905.00 C 234.00 913.00 220.00 935.00 220.00 942.00 C 220.00 949.00 210.00 964.00 195.00 962.00 C 180.00 960.00 171.00 955.00 178.00 920.00 Z" fill="#563d30" fill-rule="nonzero" group-id="1,8" node-id="348" stroke="#231815" stroke-linecap="round" stroke-width="3" target-height="105" target-width="97" target-x="171" target-y="859"></path><path d="M 186.50 619.51 C 186.50 619.51 126.00 690.00 121.00 721.00 C 116.00 752.00 119.00 763.00 125.00 791.00 C 131.00 819.00 159.00 871.00 165.00 875.00 C 171.00 879.00 177.00 886.00 198.00 878.00 C 219.00 870.00 233.00 863.00 230.00 846.00 C 227.00 829.00 197.00 750.00 194.00 748.00 C 198.00 756.00 200.00 761.00 202.00 754.00 C 204.00 747.00 221.00 721.00 231.00 719.00 C 241.00 717.00 289.00 674.00 329.00 698.00 C 369.00 722.00 364.00 766.00 353.00 784.00 C 342.00 802.00 366.00 810.00 370.00 812.00 C 374.00 814.00 393.00 824.00 397.00 808.00 C 401.00 792.00 410.00 757.00 407.00 747.00 C 404.00 737.00 367.00 622.00 339.00 617.00" fill="#163240" fill-rule="nonzero" group-id="1,8" node-id="350" stroke="#231815" stroke-linecap="round" stroke-width="3.52" target-height="269" target-width="294" target-x="116" target-y="617"></path><path d="M 185.50 491.50 C 185.50 491.50 201.50 513.50 188.50 533.50 C 185.72 537.78 202.50 512.50 210.50 501.50 C 218.50 490.50 224.50 496.50 224.50 496.50 C 224.50 496.50 247.50 512.50 245.50 526.50 C 243.50 540.50 198.50 592.50 182.50 593.50 C 166.50 594.50 158.50 577.50 158.50 577.50 C 150.50 566.50 136.50 489.50 135.50 467.50 C 134.50 445.50 194.28 420.50 194.28 420.50 C 194.28 420.50 254.20 415.66 271.50 419.50 C 289.50 423.50 308.50 423.50 316.50 444.50 C 325.17 467.26 343.50 536.50 340.50 542.50 C 337.50 548.50 336.50 614.50 336.50 614.50 L 223.50 623.50 C 223.50 623.50 194.50 626.50 187.50 620.50 C 180.50 614.50 177.50 594.50 177.50 594.50" fill="#262521" fill-rule="nonzero" group-id="1,8" node-id="352" stroke="#231815" stroke-linecap="round" stroke-width="3" target-height="210.84" target-width="209" target-x="134.5" target-y="415.66"></path><path d="M 195.58 408.34 C 195.58 408.34 189.50 431.50 203.50 441.50 C 217.50 451.50 246.50 453.50 256.50 441.50 C 266.50 429.50 272.66 395.50 272.66 395.50 C 272.66 395.50 256.50 387.50 270.50 374.50 C 270.50 374.50 258.50 381.50 252.50 366.50 C 252.50 366.50 245.50 374.50 237.50 372.50 C 229.50 370.50 226.50 365.50 225.50 363.50 C 225.50 363.50 222.50 374.50 208.50 370.50 C 208.50 375.50 206.50 388.50 189.50 385.50" fill="#fbd2b4" fill-rule="nonzero" group-id="1,8" node-id="354" stroke="#231815" stroke-linecap="round" stroke-width="3" target-height="90" target-width="83.16" target-x="189.5" target-y="363.5"></path><path d="M 301.50 361.00 C 301.49 353.30 296.71 346.41 289.50 343.71 C 296.21 341.36 299.95 334.20 298.03 327.35 C 296.12 320.49 289.21 316.31 282.25 317.78 C 286.39 311.85 286.58 304.01 282.73 297.89 C 278.88 291.77 271.73 288.54 264.59 289.71 C 257.45 290.87 251.71 296.20 250.00 303.23 C 247.80 293.27 238.46 286.56 228.32 287.66 C 218.18 288.75 210.49 297.30 210.47 307.50 C 207.71 301.08 200.37 298.00 193.85 300.51 C 187.33 303.03 183.97 310.24 186.23 316.85 C 180.25 312.62 172.37 312.20 165.98 315.77 C 159.59 319.35 155.82 326.28 156.29 333.59 C 156.76 340.90 161.40 347.28 168.20 350.00 C 163.00 348.46 157.39 350.30 154.12 354.63 C 150.86 358.97 150.62 364.87 153.54 369.44 C 156.45 374.02 161.89 376.31 167.20 375.18 C 161.02 378.94 158.41 386.58 160.98 393.34 C 163.56 400.10 170.60 404.05 177.71 402.74 C 184.83 401.44 190.00 395.23 190.00 388.00 C 189.99 387.15 189.92 386.29 189.77 385.45 C 194.43 387.41 199.79 386.61 203.67 383.36 C 207.55 380.12 209.28 374.98 208.17 370.05 C 211.26 371.69 214.90 371.95 218.19 370.78 C 221.49 369.61 224.14 367.11 225.51 363.89 C 228.13 368.69 232.95 371.89 238.40 372.42 C 243.84 372.96 249.19 370.76 252.69 366.55 C 253.37 370.45 255.93 373.76 259.53 375.40 C 263.12 377.04 267.30 376.81 270.69 374.77 L 271.19 375.23 C 267.06 376.84 264.38 380.86 264.49 385.29 C 264.61 389.72 267.48 393.60 271.69 395.00 C 275.90 396.40 280.53 395.00 283.26 391.52 C 286.00 388.03 286.26 383.21 283.91 379.45 C 293.76 378.98 301.50 370.86 301.50 361.00 Z" fill="#262521" fill-rule="nonzero" group-id="1,8" node-id="356" stroke="#231815" stroke-linecap="round" stroke-width="3.3" target-height="117.49344" target-width="150.87701" target-x="150.62299" target-y="286.56052"></path><path d="M 311.00 544.00 C 309.00 543.00 303.00 526.00 301.00 521.00 C 299.00 516.00 303.00 515.00 303.00 515.00 L 334.00 504.28 C 334.00 504.28 338.00 502.00 339.00 505.00 C 340.00 508.00 351.00 533.00 353.00 535.00" fill="#262521" fill-rule="nonzero" group-id="1,8" node-id="358" stroke="#231815" stroke-linecap="round" stroke-width="3" target-height="42" target-width="54" target-x="299" target-y="502"></path><path d="M 304.00 518.00 C 304.00 518.00 325.00 519.00 333.00 509.00 C 333.00 500.00 327.25 489.31 327.25 489.31 C 327.25 489.31 318.07 502.88 300.53 503.94 C 301.39 508.70 302.55 513.39 304.00 518.00 Z" fill="#fbd2b4" fill-rule="nonzero" group-id="1,8" node-id="360" stroke="#231815" stroke-linecap="round" stroke-width="3" target-height="29.690002" target-width="32.47" target-x="300.53" target-y="489.31"></path><path d="M 231.50 392.00 C 231.50 393.93 229.93 395.50 228.00 395.50 C 226.07 395.50 224.50 393.93 224.50 392.00 C 224.50 390.07 226.07 388.50 228.00 388.50 C 229.93 388.50 231.50 390.07 231.50 392.00 Z" fill="#231815" fill-rule="nonzero" group-id="1,8" node-id="362" stroke="none" target-height="7" target-width="7" target-x="224.5" target-y="388.5"></path><path d="M 261.00 394.50 C 261.00 396.43 259.43 398.00 257.50 398.00 C 255.57 398.00 254.00 396.43 254.00 394.50 C 254.00 392.57 255.57 391.00 257.50 391.00 C 259.43 391.00 261.00 392.57 261.00 394.50 Z" fill="#231815" fill-rule="nonzero" group-id="1,8" node-id="364" stroke="none" target-height="7" target-width="7" target-x="254" target-y="391"></path><path d="M 197.31 405.63 C 195.43 409.46 192.19 412.00 188.50 412.00 C 182.70 412.00 178.00 405.73 178.00 398.00 C 178.00 390.27 182.70 384.00 188.50 384.00 C 193.28 384.00 197.32 388.27 198.59 394.10" fill="#fbd2b4" fill-rule="nonzero" group-id="1,8" node-id="366" stroke="#231815" stroke-linecap="round" stroke-width="3" target-height="28" target-width="20.589996" target-x="178" target-y="384"></path><path d="M 223.50 413.50 C 223.50 413.50 222.50 420.50 216.50 420.50" fill="none" group-id="1,8" node-id="368" stroke="#231815" stroke-linecap="round" stroke-width="3" target-height="7" target-width="7" target-x="216.5" target-y="413.5"></path><path d="M 253.50 412.50 C 253.50 412.50 253.50 418.50 259.50 419.50" fill="none" group-id="1,8" node-id="370" stroke="#231815" stroke-linecap="round" stroke-width="3" target-height="7" target-width="6" target-x="253.5" target-y="412.5"></path><path d="M 221.64 417.91 C 221.64 417.91 238.50 431.47 254.00 417.00" fill="none" group-id="1,8" node-id="372" stroke="#231815" stroke-linecap="round" stroke-width="3" target-height="14.470001" target-width="32.36" target-x="221.64" target-y="417"></path><path d="M 332.80 459.30 C 337.89 477.98 327.08 497.30 308.50 502.72 C 289.91 508.15 270.40 497.69 264.64 479.21" fill="#fdfaf5" fill-rule="nonzero" group-id="1,8" node-id="374" stroke="#231815" stroke-linecap="round" stroke-width="3" target-height="48.853455" target-width="73.252045" target-x="264.64" target-y="459.3"></path><path d="M 331.53 457.48 L 331.67 458.81 L 331.26 460.33 L 330.15 462.15 L 328.71 463.79 L 326.70 465.60 L 324.00 467.61 L 319.60 470.33 L 314.06 473.17 L 308.08 475.74 L 301.29 478.18 L 294.37 480.21 L 288.02 481.66 L 281.87 482.62 L 276.71 483.02 L 273.35 482.98 L 270.66 482.71 L 268.53 482.23 L 266.56 481.41 L 265.33 480.42 L 264.65 479.27 L 264.52 477.94 L 264.93 476.42 L 266.04 474.59 L 267.48 472.96 L 269.49 471.15 L 272.19 469.14 L 276.59 466.42 L 282.13 463.57 L 288.11 461.00 L 294.90 458.56 L 301.82 456.53 L 308.16 455.09 L 314.32 454.12 L 319.48 453.73 L 322.84 453.76 L 325.53 454.04 L 327.66 454.51 L 329.63 455.33 L 330.86 456.32 L 331.53 457.48 Z" fill="#fdfaf5" fill-rule="nonzero" group-id="1,8,20" node-id="378" stroke="#231815" stroke-linecap="round" stroke-width="3" target-height="29.287537" target-width="67.14426" target-x="264.52103" target-y="453.72858"></path><path d="M 197.50 462.50 L 275.50 475.50 L 198.50 472.50" fill="none" group-id="1,8" node-id="381" stroke="#dcdddd" stroke-linecap="round" stroke-width="3" target-height="13" target-width="78" target-x="197.5" target-y="462.5"></path><path d="M 219.50 494.50 C 219.50 494.50 220.50 480.50 218.50 473.50 C 216.50 466.50 228.50 453.50 237.50 457.50 L 228.50 466.50 C 228.50 466.50 241.50 449.50 247.50 458.50 C 252.50 464.50 248.50 466.50 240.50 472.50 C 245.50 469.50 251.50 462.50 253.50 471.50 C 254.61 476.50 246.50 478.50 246.50 478.50 C 246.50 478.50 256.50 471.50 257.50 483.50 C 258.50 495.50 250.50 491.50 250.50 486.50 C 250.50 489.50 252.50 523.50 245.50 520.50 C 242.50 514.50 237.50 503.50 219.50 494.50 Z" fill="#fbd2b4" fill-rule="nonzero" group-id="1,8" node-id="383" stroke="#231815" stroke-linecap="round" stroke-width="3" target-height="74" target-width="42" target-x="216.5" target-y="449.5"></path><path d="M 298.81 492.50 L 299.19 492.50 C 302.12 492.50 304.50 494.88 304.50 497.81 L 304.50 506.19 C 304.50 509.12 302.12 511.50 299.19 511.50 L 298.81 511.50 C 295.88 511.50 293.50 509.12 293.50 506.19 L 293.50 497.81 C 293.50 494.88 295.88 492.50 298.81 492.50 Z" fill="#fbd2b4" fill-rule="nonzero" group-id="1,8" node-id="385" stroke="#231815" stroke-linecap="round" stroke-width="3" target-height="19" target-width="11" target-x="293.5" target-y="492.5"></path><path d="M 310.81 486.50 L 311.19 486.50 C 314.12 486.50 316.50 488.88 316.50 491.81 L 316.50 500.19 C 316.50 503.12 314.12 505.50 311.19 505.50 L 310.81 505.50 C 307.88 505.50 305.50 503.12 305.50 500.19 L 305.50 491.81 C 305.50 488.88 307.88 486.50 310.81 486.50 Z" fill="#fbd2b4" fill-rule="nonzero" group-id="1,8" node-id="387" stroke="#231815" stroke-linecap="round" stroke-width="3" target-height="19" target-width="11" target-x="305.5" target-y="486.5"></path><path d="M 324.92 478.40 L 324.92 478.40 L 326.36 478.85 L 327.54 479.58 L 328.50 480.61 L 329.17 481.86 L 329.49 483.21 L 329.46 484.71 L 327.80 494.83 L 327.35 496.27 L 326.61 497.44 L 325.58 498.40 L 324.34 499.08 L 322.99 499.40 L 321.48 499.36 L 321.48 499.36 L 320.04 498.91 L 318.86 498.18 L 317.90 497.15 L 317.23 495.90 L 316.91 494.55 L 316.94 493.05 L 318.60 482.93 L 319.05 481.49 L 319.79 480.32 L 320.82 479.35 L 322.06 478.68 L 323.41 478.36 L 324.92 478.40 Z" fill="#fbd2b4" fill-rule="nonzero" group-id="1,8,21" node-id="391" stroke="#231815" stroke-linecap="round" stroke-width="3" target-height="21.036194" target-width="12.581482" target-x="316.90894" target-y="478.3617"></path><path d="M 337.57 470.30 L 338.27 470.45 L 339.59 470.95 L 340.65 471.70 L 341.49 472.72 L 342.05 473.91 L 342.27 475.19 L 342.16 476.60 L 339.68 487.63 L 339.18 488.95 L 338.43 490.01 L 337.42 490.85 L 336.22 491.41 L 334.94 491.63 L 333.54 491.52 L 332.84 491.36 L 331.52 490.86 L 330.46 490.11 L 329.62 489.10 L 329.06 487.90 L 328.84 486.63 L 328.95 485.22 L 331.43 474.19 L 331.93 472.87 L 332.68 471.81 L 333.69 470.97 L 334.89 470.41 L 336.16 470.18 L 337.57 470.30 Z" fill="#fbd2b4" fill-rule="nonzero" group-id="1,8,22" node-id="396" stroke="#231815" stroke-linecap="round" stroke-width="3" target-height="21.44934" target-width="13.437744" target-x="328.8351" target-y="470.1837"></path><path d="M 273.50 465.50 C 273.50 465.50 272.50 455.50 278.50 454.50 C 284.50 453.50 288.50 456.50 289.50 464.50 C 290.50 472.50 280.50 472.50 278.50 467.50 C 276.50 462.50 273.50 465.50 273.50 465.50 Z" fill="#fbd2b4" fill-rule="nonzero" group-id="1,8" node-id="399" stroke="#231815" stroke-linecap="round" stroke-width="3" target-height="19" target-width="18" target-x="272.5" target-y="453.5"></path><path d="M 359.00 807.00 C 359.00 807.00 339.00 837.00 355.00 842.00 C 364.18 844.83 373.19 848.17 382.00 852.00 L 411.00 842.00 L 411.00 835.00 C 411.00 835.00 392.00 830.00 395.00 813.00 C 388.00 817.00 386.00 821.00 359.00 807.00 Z" fill="#563d30" fill-rule="nonzero" group-id="1,8" node-id="401" stroke="#231815" stroke-linecap="round" stroke-width="3" target-height="45" target-width="72" target-x="339" target-y="807"></path><path d="M 350.00 824.00 L 398.00 847.00 L 383.00 852.00 L 355.00 842.00 C 355.00 842.00 345.00 839.00 350.00 824.00 Z" fill="none" group-id="1,8" node-id="403" stroke="#231815" stroke-linecap="round" stroke-width="3.52" target-height="28" target-width="53" target-x="345" target-y="824"></path><path d="M 29.41 941.59 C 29.41 941.59 76.41 945.59 87.41 936.59 C 98.41 927.59 108.41 915.59 135.41 920.59 C 162.41 925.59 206.41 923.59 206.41 923.59 C 206.41 923.59 216.41 926.59 216.41 950.59 L 216.41 950.41 C 216.41 974.41 206.41 977.41 206.41 977.41 C 206.41 977.41 162.41 975.41 135.41 980.41 C 108.41 985.41 98.41 973.41 87.41 964.41 C 76.41 955.41 29.41 959.41 29.41 959.41" fill="#2e4b43" fill-rule="nonzero" group-id="1,9" node-id="407" stroke="#231815" stroke-linecap="round" stroke-width="3" target-height="69.81995" target-width="187" target-x="29.41" target-y="915.59"></path><path d="M 156.91 923.10 C 165.91 937.91 157.91 961.91 157.91 961.91 L 115.91 961.91 C 120.91 947.91 112.98 921.60 115.74 920.05 C 118.50 918.50 128.32 919.70 156.91 923.10 Z" fill="#e15c3d" fill-rule="nonzero" group-id="1,9" node-id="409" stroke="#231815" stroke-linecap="round" stroke-width="3" target-height="43.409973" target-width="52.93" target-x="112.98" target-y="918.5"></path><path d="M 33.41 950.41 C 33.41 955.38 31.62 959.41 29.41 959.41 C 27.20 959.41 25.41 955.38 25.41 950.41 C 25.41 945.44 27.20 941.41 29.41 941.41 C 31.62 941.41 33.41 945.44 33.41 950.41 Z" fill="#1d302a" fill-rule="nonzero" group-id="1,9" node-id="411" stroke="#231815" stroke-linecap="butt" stroke-width="3" target-height="18" target-width="8" target-x="25.41" target-y="941.41"></path><path d="M 622.50 480.50 L 668.50 486.50 C 668.50 486.50 682.50 487.50 682.50 509.50 L 682.50 558.50 L 671.50 568.50 L 630.50 559.50 Z" fill="#e2e2e2" fill-rule="nonzero" group-id="1,10" node-id="415" stroke="#231815" stroke-linecap="round" stroke-width="3" target-height="88" target-width="60" target-x="622.5" target-y="480.5"></path><path d="M 622.50 490.50 L 663.50 495.50 C 663.50 495.50 671.50 497.50 671.50 510.50 L 671.50 568.50 L 630.50 559.50 Z" fill="#ffffff" fill-rule="nonzero" group-id="1,10" node-id="417" stroke="#231815" stroke-linecap="round" stroke-width="3" target-height="78" target-width="49" target-x="622.5" target-y="490.5"></path><path d="M 663.50 567.50 L 663.50 661.50 L 653.50 658.50 L 653.50 564.50" fill="#e2e2e2" fill-rule="nonzero" group-id="1,10" node-id="419" stroke="#231815" stroke-linecap="round" stroke-width="3" target-height="97" target-width="10" target-x="653.5" target-y="564.5"></path><path d="M 634.50 654.50 L 673.50 665.50 C 673.50 665.50 681.50 666.50 681.50 678.50 L 681.50 691.50 C 681.50 691.50 681.50 698.50 671.50 702.50 C 661.50 706.50 595.50 731.50 595.50 731.50 L 592.50 730.50 L 591.50 719.50 Z" fill="#ffffff" fill-rule="nonzero" group-id="1,10" node-id="421" stroke="#231815" stroke-linecap="round" stroke-width="3" target-height="77" target-width="90" target-x="591.5" target-y="654.5"></path><path d="M 674.50 676.50 L 620.50 695.50" fill="none" group-id="1,10" node-id="423" stroke="#231815" stroke-linecap="round" stroke-width="3" target-height="19" target-width="54" target-x="620.5" target-y="676.5"></path><path d="M 663.50 705.50 L 663.50 840.50 L 654.50 840.50 L 653.50 709.50" fill="#e2e2e2" fill-rule="nonzero" group-id="1,10" node-id="425" stroke="#231815" stroke-linecap="round" stroke-width="3" target-height="135" target-width="10" target-x="653.5" target-y="705.5"></path><path d="M 586.50 807.38 L 586.50 870.50 L 576.50 870.50 L 576.50 797.16" fill="#e2e2e2" fill-rule="nonzero" group-id="1,10" node-id="427" stroke="#231815" stroke-linecap="round" stroke-width="3" target-height="73.34003" target-width="10" target-x="576.5" target-y="797.16"></path><path d="M 455.36 394.67 L 389.26 417.84 L 379.67 394.21 L 443.21 364.73 L 455.36 394.67 Z" fill="none" group-id="1,11,23" node-id="432" stroke="#231815" stroke-linecap="round" stroke-width="2.41" target-height="53.109985" target-width="75.68997" target-x="379.67" target-y="364.73"></path><path d="M 380.00 394.00 L 441.00 394.00 L 454.00 394.00 L 455.00 394.00 L 389.00 418.00 L 380.00 394.00 Z" fill="#ff9920" fill-rule="nonzero" group-id="1,11,23" node-id="434" stroke="#231815" stroke-linecap="round" stroke-width="3" target-height="24" target-width="75" target-x="380" target-y="394"></path><path d="M 401.34 422.00 C 401.34 422.00 395.46 421.00 394.50 416.49 L 440.86 399.13 C 440.86 399.13 436.79 419.13 431.65 417.29 C 426.51 415.45 407.17 412.52 401.34 422.00 Z" fill="#fbd2b4" fill-rule="nonzero" group-id="1,11,24" node-id="438" stroke="#231815" stroke-linecap="round" stroke-width="3" target-height="22.869995" target-width="46.359985" target-x="394.5" target-y="399.13"></path><path d="M 429.53 395.11 L 429.71 394.95 L 430.96 394.19 L 432.24 393.80 L 433.61 393.76 L 434.95 394.06 L 436.14 394.68 L 437.21 395.67 L 441.11 400.38 L 441.87 401.62 L 442.26 402.91 L 442.30 404.28 L 442.00 405.61 L 441.38 406.80 L 440.39 407.88 L 440.21 408.03 L 438.96 408.80 L 437.67 409.19 L 436.31 409.23 L 434.97 408.93 L 433.78 408.31 L 432.70 407.32 L 428.81 402.61 L 428.05 401.36 L 427.66 400.08 L 427.61 398.71 L 427.91 397.37 L 428.54 396.19 L 429.53 395.11 Z" fill="#fbd2b4" fill-rule="nonzero" group-id="1,11,24,28" node-id="442" stroke="#231815" stroke-linecap="round" stroke-width="2.9999998" target-height="15.475403" target-width="14.688416" target-x="427.6146" target-y="393.75595"></path><path d="M 391.43 382.67 L 395.65 382.31 L 397.20 382.49 L 398.48 383.21 L 399.41 384.36 L 399.85 385.85 L 401.05 400.13 L 400.87 401.67 L 400.15 402.96 L 399.00 403.88 L 397.51 404.32 L 393.29 404.68 L 391.75 404.50 L 390.46 403.78 L 389.53 402.63 L 389.10 401.14 L 387.89 386.86 L 388.07 385.32 L 388.79 384.03 L 389.94 383.10 L 391.43 382.67 Z" fill="#fbd2b4" fill-rule="nonzero" group-id="1,11,24,29" node-id="447" stroke="#231815" stroke-linecap="round" stroke-width="3" target-height="22.368591" target-width="13.163971" target-x="387.8902" target-y="382.30997"></path><path d="M 402.90 375.98 L 405.67 375.43 L 406.93 375.36 L 408.06 375.59 L 409.12 376.12 L 410.01 376.89 L 410.65 377.85 L 411.07 379.04 L 413.58 391.70 L 413.65 392.96 L 413.42 394.09 L 412.89 395.15 L 412.12 396.03 L 411.16 396.68 L 409.97 397.10 L 407.21 397.65 L 405.95 397.72 L 404.81 397.49 L 403.76 396.96 L 402.87 396.19 L 402.23 395.23 L 401.81 394.04 L 399.30 381.37 L 399.23 380.12 L 399.46 378.98 L 399.98 377.93 L 400.76 377.04 L 401.72 376.39 L 402.90 375.98 Z" fill="#fbd2b4" fill-rule="nonzero" group-id="1,11,24,30" node-id="452" stroke="#231815" stroke-linecap="round" stroke-width="3" target-height="22.355713" target-width="14.42392" target-x="399.2267" target-y="375.3596"></path><path d="M 413.91 366.98 L 416.68 366.43 L 417.93 366.36 L 419.07 366.59 L 420.12 367.12 L 421.01 367.89 L 421.66 368.85 L 422.07 370.04 L 424.59 382.70 L 424.66 383.96 L 424.43 385.09 L 423.90 386.15 L 423.13 387.03 L 422.17 387.68 L 420.98 388.10 L 418.21 388.65 L 416.96 388.72 L 415.82 388.49 L 414.77 387.96 L 413.88 387.19 L 413.23 386.23 L 412.82 385.04 L 410.30 372.37 L 410.23 371.12 L 410.46 369.98 L 410.99 368.93 L 411.76 368.04 L 412.72 367.39 L 413.91 366.98 Z" fill="#fbd2b4" fill-rule="nonzero" group-id="1,11,24,31" node-id="457" stroke="#231815" stroke-linecap="round" stroke-width="3" target-height="22.355713" target-width="14.423981" target-x="410.23334" target-y="366.35968"></path><path d="M 427.28 365.71 L 427.28 365.71 L 428.92 365.62 L 430.41 365.92 L 431.78 366.61 L 432.95 367.62 L 433.79 368.87 L 434.33 370.43 L 435.75 377.58 L 435.85 379.22 L 435.55 380.70 L 434.86 382.08 L 433.85 383.24 L 432.59 384.09 L 431.04 384.63 L 431.04 384.63 L 429.39 384.72 L 427.91 384.42 L 426.53 383.73 L 425.37 382.72 L 424.53 381.47 L 423.98 379.91 L 422.56 372.76 L 422.47 371.12 L 422.77 369.64 L 423.46 368.26 L 424.47 367.10 L 425.73 366.25 L 427.28 365.71 Z" fill="#fbd2b4" fill-rule="nonzero" group-id="1,11,24,32" node-id="462" stroke="#231815" stroke-linecap="round" stroke-width="3" target-height="19.103027" target-width="13.3723755" target-x="422.4732" target-y="365.61896"></path><path d="M 414.50 751.50 C 414.50 751.50 420.50 834.50 416.50 834.50 C 412.50 834.50 431.50 854.50 453.50 845.50 C 475.50 836.50 450.50 749.50 450.50 749.50 Z" fill="#262521" fill-rule="nonzero" group-id="1,11,25" node-id="467" stroke="#231815" stroke-linecap="round" stroke-width="3" target-height="105" target-width="63" target-x="412.5" target-y="749.5"></path><path d="M 420.50 840.50 L 389.41 849.29 L 374.50 853.50 C 374.50 853.50 362.50 858.50 365.50 868.50 C 366.59 870.24 368.45 871.35 370.50 871.50 L 431.50 870.50 L 458.88 860.88 L 450.78 846.47 Z" fill="#af4d47" fill-rule="nonzero" group-id="1,11,25" node-id="469" stroke="#231815" stroke-linecap="round" stroke-width="3" target-height="31" target-width="96.380005" target-x="362.5" target-y="840.5"></path><path d="M 387.50 849.50 C 387.50 849.50 397.50 860.50 396.50 870.50 L 368.50 870.50 C 368.50 870.50 365.50 870.50 365.50 865.50 C 365.50 860.50 365.50 854.50 387.50 849.50 Z" fill="#fdfaf5" fill-rule="nonzero" group-id="1,11,25" node-id="471" stroke="#231815" stroke-linecap="round" stroke-width="3" target-height="21" target-width="32" target-x="365.5" target-y="849.5"></path><path d="M 420.50 863.50 L 455.08 854.12 L 458.50 859.50 L 439.50 867.69 L 419.50 866.52 L 420.50 863.50 Z" fill="#fdfaf5" fill-rule="nonzero" group-id="1,11,25" node-id="473" stroke="#231815" stroke-linecap="round" stroke-width="3" target-height="13.570007" target-width="39" target-x="419.5" target-y="854.12"></path><path d="M 476.50 874.50 L 476.50 891.50 L 476.50 891.23 C 476.51 891.32 476.51 891.41 476.50 891.50 C 476.50 895.92 448.97 899.50 415.00 899.50 C 381.03 899.50 353.50 895.92 353.50 891.50 C 353.50 891.44 353.50 891.38 353.50 891.32 L 353.50 891.50 L 353.50 874.50" fill="#c1c1c1" fill-rule="nonzero" group-id="1,11,25" node-id="475" stroke="#231815" stroke-linecap="round" stroke-width="3" target-height="25" target-width="123.01474" target-x="353.4951" target-y="874.5"></path><path d="M 476.50 874.50 C 476.50 878.92 448.97 882.50 415.00 882.50 C 381.03 882.50 353.50 878.92 353.50 874.50 C 353.50 870.08 381.03 866.50 415.00 866.50 C 448.97 866.50 476.50 870.08 476.50 874.50 Z" fill="#e2e2e2" fill-rule="nonzero" group-id="1,11,25" node-id="477" stroke="#231815" stroke-linecap="round" stroke-width="3" target-height="16" target-width="123" target-x="353.5" target-y="866.5"></path><path d="M 414.50 894.50 C 414.50 894.50 403.50 923.50 450.50 911.50 C 497.50 899.50 529.24 888.57 529.87 877.50 C 530.50 866.43 466.50 862.50 466.50 862.50 C 466.50 862.50 415.50 888.50 414.50 894.50 Z" fill="#fdfaf5" fill-rule="nonzero" group-id="1,11,25" node-id="479" stroke="#231815" stroke-linecap="round" stroke-width="3" target-height="61" target-width="127" target-x="403.5" target-y="862.5"></path><path d="M 466.50 862.50 C 466.50 862.50 413.50 890.50 414.50 894.50 C 415.50 898.50 445.50 910.50 506.50 874.50 C 497.50 869.50 466.50 862.50 466.50 862.50 Z" fill="#af4d47" fill-rule="nonzero" group-id="1,11,25" node-id="481" stroke="#231815" stroke-linecap="round" stroke-width="3" target-height="48" target-width="93" target-x="413.5" target-y="862.5"></path><path d="M 450.50 759.50 C 450.50 759.50 454.50 816.50 452.50 829.50 C 450.50 842.50 445.50 857.50 469.50 866.50 C 493.50 875.50 519.50 879.50 526.50 878.50 C 533.50 877.50 536.50 872.50 532.50 857.50 C 526.50 840.50 514.50 753.50 513.50 747.50 Z" fill="#262521" fill-rule="nonzero" group-id="1,11,25" node-id="483" stroke="#231815" stroke-linecap="round" stroke-width="3" target-height="132" target-width="91" target-x="445.5" target-y="747.5"></path><path d="M 436.50 878.50 C 436.50 878.50 455.50 891.50 456.50 896.50 C 456.50 896.50 427.50 904.50 414.50 894.50 C 418.50 890.50 436.50 878.50 436.50 878.50 Z" fill="#fdfaf5" fill-rule="nonzero" group-id="1,11,25" node-id="485" stroke="#231815" stroke-linecap="round" stroke-width="3" target-height="26" target-width="42" target-x="414.5" target-y="878.5"></path><path d="M 625.50 624.50 C 625.50 624.50 635.50 646.50 633.50 662.50 C 631.50 678.50 622.50 692.50 616.50 691.50 C 610.50 690.50 607.50 632.50 607.50 632.50 Z" fill="#262521" fill-rule="nonzero" group-id="1,11,25" node-id="487" stroke="#231815" stroke-linecap="round" stroke-width="3" target-height="68" target-width="28" target-x="607.5" target-y="624.5"></path><path d="M 608.50 632.50 C 622.50 634.50 625.50 624.50 625.50 624.50 C 616.50 603.50 617.50 589.50 617.50 589.50 L 601.50 594.50 Z" fill="#af4d47" fill-rule="nonzero" group-id="1,11,26" node-id="491" stroke="#231815" stroke-linecap="round" stroke-width="3" target-height="45" target-width="24" target-x="601.5" target-y="589.5"></path><path d="M 507.39 397.90 C 507.39 397.90 509.59 415.50 506.55 418.00 C 503.51 420.50 510.50 425.50 513.50 424.50 L 514.50 396.50 Z" fill="#fbd2b4" fill-rule="nonzero" group-id="1,11,26" node-id="493" stroke="#231815" stroke-linecap="round" stroke-width="3" target-height="29" target-width="10.98999" target-x="503.51" target-y="396.5"></path><path d="M 409.50 757.50 L 409.50 874.50 C 409.50 874.50 414.50 881.50 419.50 874.50 L 419.50 755.50" fill="#c1c1c1" fill-rule="nonzero" group-id="1,12" node-id="498" stroke="#231815" stroke-linecap="round" stroke-width="3" target-height="126" target-width="10" target-x="409.5" target-y="755.5"></path><path d="M 220.50 593.50 C 220.50 593.50 219.50 659.50 216.50 672.50 C 213.50 685.50 202.50 718.50 240.50 718.50 L 248.50 718.50 C 248.50 718.50 243.50 730.50 255.50 732.50 C 267.50 734.50 274.50 735.50 279.50 739.50 C 284.50 743.50 304.50 761.50 334.50 758.50 C 364.50 755.50 366.50 747.50 386.50 751.50 C 406.50 755.50 434.50 764.50 443.50 763.50 C 452.50 762.50 503.50 743.50 521.50 747.50 C 539.50 751.50 569.50 758.50 579.50 751.50 C 589.50 744.50 594.50 740.50 592.50 726.50 C 592.50 726.50 590.50 719.50 604.50 717.50 C 618.50 715.50 625.50 685.50 617.50 674.50 C 609.50 663.50 600.50 593.50 601.50 589.50" fill="#e2e2e2" fill-rule="nonzero" group-id="1,12" node-id="500" stroke="#231815" stroke-linecap="round" stroke-width="3" target-height="175" target-width="423" target-x="202.5" target-y="589.5"></path><path d="M 601.50 590.00 C 601.50 613.47 516.21 632.50 411.00 632.50 C 305.79 632.50 220.50 613.47 220.50 590.00 C 220.50 566.53 305.79 547.50 411.00 547.50 C 516.21 547.50 601.50 566.53 601.50 590.00 Z" fill="#ffffff" fill-rule="nonzero" group-id="1,12" node-id="502" stroke="#231815" stroke-linecap="round" stroke-width="3" target-height="85" target-width="381" target-x="220.5" target-y="547.5"></path><path d="M 257.50 669.50 C 257.50 669.50 249.50 714.50 248.50 717.50" fill="none" group-id="1,12" node-id="504" stroke="#231815" stroke-linecap="round" stroke-width="3" target-height="48" target-width="9" target-x="248.5" target-y="669.5"></path><path d="M 311.50 647.50 C 311.50 647.50 314.50 678.50 309.50 684.50" fill="none" group-id="1,12" node-id="506" stroke="#231815" stroke-linecap="round" stroke-width="3" target-height="37" target-width="5" target-x="309.5" target-y="647.5"></path><path d="M 405.50 658.50 C 405.50 658.50 402.50 718.50 407.50 725.50" fill="none" group-id="1,12" node-id="508" stroke="#231815" stroke-linecap="round" stroke-width="3" target-height="67" target-width="5" target-x="402.5" target-y="658.5"></path><path d="M 503.50 685.50 C 503.50 685.50 506.50 727.50 511.50 734.50" fill="none" group-id="1,12" node-id="510" stroke="#231815" stroke-linecap="round" stroke-width="3" target-height="49" target-width="8" target-x="503.5" target-y="685.5"></path><path d="M 581.50 640.50 C 581.50 640.50 592.50 721.50 592.50 724.50" fill="none" group-id="1,12" node-id="512" stroke="#231815" stroke-linecap="round" stroke-width="3" target-height="84" target-width="11" target-x="581.5" target-y="640.5"></path><path d="M 273.00 790.00 L 344.00 790.00 L 342.00 809.00 L 337.15 835.34 L 337.77 861.94 L 344.00 884.00 L 344.00 912.00 L 339.00 933.00 L 334.00 943.00 L 328.00 945.00 L 319.00 940.00 L 314.00 944.00 L 304.00 944.00 L 297.00 940.00 L 291.00 943.00 L 284.00 943.00 L 277.00 927.00 L 273.00 911.00 L 272.00 892.00 L 276.00 872.00 L 284.00 834.00 L 276.54 811.56 L 273.00 790.00 Z" fill="#262521" fill-rule="nonzero" group-id="1,13" node-id="516" stroke="none" target-height="155" target-width="72" target-x="272" target-y="790"></path><path d="M 301.79 714.00 L 315.21 714.00 C 316.75 714.00 318.00 715.25 318.00 716.79 L 318.00 722.21 C 318.00 723.75 316.75 725.00 315.21 725.00 L 301.79 725.00 C 300.25 725.00 299.00 723.75 299.00 722.21 L 299.00 716.79 C 299.00 715.25 300.25 714.00 301.79 714.00 Z" fill="#3d435d" fill-rule="nonzero" group-id="1,13" node-id="518" stroke="#231815" stroke-linecap="round" stroke-width="3.52" target-height="11" target-width="19" target-x="299" target-y="714"></path><path d="M 276.64 869.83 C 284.49 875.40 297.00 879.00 311.00 879.00 C 322.56 879.00 333.06 876.56 340.79 872.59 C 340.79 872.59 330.67 853.06 341.79 809.03 C 333.98 813.33 323.05 816.03 310.96 816.03 C 296.60 816.03 282.77 811.81 274.96 806.03 C 275.00 806.00 286.29 840.67 276.64 869.83 Z" fill="#3d435d" fill-rule="nonzero" group-id="1,13" node-id="520" stroke="#231815" stroke-linecap="round" stroke-width="3.52" target-height="73" target-width="66.83002" target-x="274.96" target-y="806"></path><path d="M 303.00 725.00 C 303.00 725.00 263.00 756.00 276.00 809.00 C 285.00 853.00 278.00 864.00 275.00 876.00 C 272.00 888.00 269.00 907.00 280.00 937.00 C 285.00 950.00 297.00 940.00 297.00 940.00" fill="none" group-id="1,13" node-id="522" stroke="#231815" stroke-linecap="round" stroke-width="3.52" target-height="225" target-width="40" target-x="263" target-y="725"></path><path d="M 320.22 941.00 C 320.22 941.00 332.22 951.00 337.22 938.00 C 348.22 908.00 345.22 889.00 342.22 877.00 C 339.22 865.00 332.22 854.00 341.22 810.00 C 354.22 757.00 314.22 726.00 314.22 726.00" fill="none" group-id="1,13" node-id="524" stroke="#231815" stroke-linecap="round" stroke-width="3.52" target-height="225" target-width="40" target-x="314.22" target-y="726"></path><path d="M 321.86 935.75 C 319.57 941.28 314.20 944.93 308.21 945.01 C 302.22 945.09 296.76 941.61 294.31 936.14" fill="none" group-id="1,13" node-id="526" stroke="#231815" stroke-linecap="round" stroke-width="3.52" target-height="9.344971" target-width="27.549988" target-x="294.31" target-y="935.75"></path><path d="M 299.09 554.10 C 300.67 557.70 320.49 569.76 320.49 569.76 C 327.58 572.58 341.49 574.50 357.49 574.50 C 376.16 574.50 391.98 571.89 397.49 568.28 C 397.49 568.28 410.49 556.50 410.49 552.50" fill="#bcbcbc" fill-rule="nonzero" group-id="1,14" node-id="530" stroke="#231815" stroke-linecap="round" stroke-width="3" target-height="22" target-width="111.399994" target-x="299.09" target-y="552.5"></path><path d="M 410.50 552.00 C 410.50 560.01 385.43 566.50 354.50 566.50 C 323.57 566.50 298.50 560.01 298.50 552.00 C 298.50 543.99 323.57 537.50 354.50 537.50 C 385.43 537.50 410.50 543.99 410.50 552.00 Z" fill="#e2e2e2" fill-rule="nonzero" group-id="1,14" node-id="532" stroke="#231815" stroke-linecap="round" stroke-width="3" target-height="29" target-width="112" target-x="298.5" target-y="537.5"></path><path d="M 371.50 553.50 C 371.50 553.50 367.50 566.50 360.50 564.50 C 353.50 562.50 354.50 559.50 354.50 559.50 C 354.50 559.50 345.50 567.50 339.50 564.50 C 333.50 561.50 345.50 557.50 345.50 557.50 C 345.50 557.50 327.50 566.50 323.50 561.50 C 319.50 556.50 324.50 556.50 324.50 556.50 C 324.50 556.50 307.50 562.50 306.50 555.50 C 305.50 548.50 317.50 545.50 319.50 547.50 C 320.50 545.50 320.50 539.50 327.50 543.50 C 329.50 541.50 329.50 528.50 337.50 538.50 C 337.50 538.50 339.50 524.50 354.50 541.50 C 353.50 536.50 353.50 524.50 367.50 539.50 C 370.50 541.50 372.50 547.50 372.50 547.50" fill="#2c774e" fill-rule="nonzero" group-id="1,14" node-id="534" stroke="#231815" stroke-linecap="round" stroke-width="3" target-height="43" target-width="67" target-x="305.5" target-y="524.5"></path><path d="M 391.50 545.50 C 391.50 545.50 395.50 546.50 394.50 550.50 C 393.50 554.50 326.50 554.50 326.50 554.50 L 391.50 545.50" fill="#fdfaf5" fill-rule="nonzero" group-id="1,14" node-id="536" stroke="#231815" stroke-linecap="round" stroke-width="3" target-height="9" target-width="69" target-x="326.5" target-y="545.5"></path><path d="M 391.50 555.50 C 390.82 555.50 390.15 555.61 389.50 555.81 C 389.34 554.52 387.63 553.50 385.50 553.50 C 383.37 553.50 381.50 554.62 381.50 556.00 C 381.53 556.64 381.88 557.23 382.42 557.58 C 379.62 557.96 377.50 559.79 377.50 562.00 C 377.50 564.49 380.19 566.50 383.50 566.50 C 386.81 566.50 389.35 564.59 389.50 562.20 C 390.15 562.40 390.82 562.50 391.50 562.50 C 394.26 562.50 396.50 560.93 396.50 559.00 C 396.50 557.07 394.26 555.50 391.50 555.50 Z" fill="#2c774e" fill-rule="nonzero" group-id="1,14" node-id="538" stroke="#231815" stroke-linecap="round" stroke-width="3" target-height="13" target-width="19" target-x="377.5" target-y="553.5"></path><path d="M 588.89 428.00 C 556.72 418.39 513.62 417.87 513.62 417.87 C 513.62 417.87 470.50 416.50 460.50 440.50 C 450.50 464.50 449.50 478.50 449.50 478.50 C 449.50 478.50 436.50 447.77 432.85 419.56 C 432.62 417.81 431.18 416.48 429.42 416.39 C 418.73 415.75 401.31 413.00 399.50 427.50 C 397.50 443.50 412.57 509.45 417.50 516.50 C 424.50 526.50 429.50 532.50 445.50 533.50 C 461.50 534.50 473.50 524.50 481.50 477.50 C 481.50 477.50 473.50 538.50 480.50 550.50 C 487.50 562.50 545.50 558.50 545.50 558.50 L 595.50 557.50" fill="#af4d47" fill-rule="nonzero" group-id="1,15" node-id="542" stroke="#231815" stroke-linecap="round" stroke-width="3" target-height="149.5" target-width="198" target-x="397.5" target-y="413"></path><path d="M 471.50 338.50 C 471.50 338.50 463.50 383.50 486.50 394.50 C 497.50 399.50 511.50 398.43 515.00 395.97 C 515.00 395.97 544.50 362.50 536.50 346.50 C 528.50 330.50 535.50 311.50 511.50 308.50 C 487.50 305.50 469.50 305.50 469.50 318.50 C 469.50 331.50 471.50 338.50 471.50 338.50 Z" fill="#fbd2b4" fill-rule="nonzero" group-id="1,15" node-id="544" stroke="#231815" stroke-linecap="round" stroke-width="3" target-height="94" target-width="81" target-x="463.5" target-y="305.5"></path><path d="M 483.00 348.50 C 483.00 350.43 481.43 352.00 479.50 352.00 C 477.57 352.00 476.00 350.43 476.00 348.50 C 476.00 346.57 477.57 345.00 479.50 345.00 C 481.43 345.00 483.00 346.57 483.00 348.50 Z" fill="#231815" fill-rule="nonzero" group-id="1,15" node-id="546" stroke="none" target-height="7" target-width="7" target-x="476" target-y="345"></path><path d="M 511.00 318.00 C 511.00 318.00 507.00 341.00 503.00 341.00 C 499.00 341.00 503.50 319.50 497.50 315.50 C 496.50 321.50 496.50 341.50 487.50 340.50 C 478.50 339.50 478.50 340.50 480.50 331.50 C 482.50 322.50 479.50 316.50 479.50 316.50 C 479.50 316.50 471.50 329.50 471.50 338.50 C 468.47 338.50 465.45 338.16 462.50 337.50 C 462.50 337.50 460.50 306.50 479.50 292.50 C 498.50 278.50 518.50 276.50 524.50 276.50 C 530.50 276.50 553.50 276.50 565.50 290.50 C 577.50 304.50 588.50 362.50 589.50 381.50 C 590.50 400.50 591.50 427.50 591.50 427.50 L 575.50 422.50 C 575.50 422.50 576.50 411.50 573.50 409.50 C 575.50 410.50 576.50 415.50 574.50 427.50 C 574.50 427.50 570.50 463.50 568.50 471.50 C 566.50 479.50 566.50 498.50 566.50 498.50 C 566.50 498.50 568.50 509.50 559.50 507.50 C 550.50 505.50 551.50 500.50 553.50 489.50 C 553.50 489.50 549.50 512.50 542.50 509.50 C 535.50 506.50 532.50 506.50 533.50 500.50 C 534.50 494.50 532.50 486.50 532.50 486.50 C 532.50 486.50 526.50 498.50 524.50 500.50 C 522.50 502.50 512.50 505.50 513.50 494.50 C 514.50 483.50 519.50 457.50 516.50 446.50 C 513.50 435.50 511.50 405.50 517.50 383.50 C 523.50 361.50 516.50 322.50 511.00 318.00 Z" fill="#262521" fill-rule="nonzero" group-id="1,15" node-id="548" stroke="#231815" stroke-linecap="round" stroke-width="3.3" target-height="236" target-width="131" target-x="460.5" target-y="276.5"></path><path d="M 473.50 376.50 C 473.50 376.50 481.50 378.50 484.50 373.50" fill="none" group-id="1,15" node-id="550" stroke="#231815" stroke-linecap="round" stroke-width="3" target-height="5" target-width="11" target-x="473.5" target-y="373.5"></path><path d="M 484.50 367.50 C 484.50 367.50 483.50 375.50 487.50 378.50" fill="none" group-id="1,15" node-id="552" stroke="#231815" stroke-linecap="round" stroke-width="3" target-height="11" target-width="4" target-x="483.5" target-y="367.5"></path><path d="M 472.50 534.50 L 483.50 563.50 L 483.50 563.50 C 483.50 566.26 494.25 568.50 507.50 568.50 C 520.75 568.50 531.50 566.26 531.50 563.50 L 543.50 534.50" fill="#e2e2e2" fill-rule="nonzero" group-id="1,16" node-id="556" stroke="#231815" stroke-linecap="round" stroke-width="3" target-height="34" target-width="71" target-x="472.5" target-y="534.5"></path><path d="M 543.50 535.00 C 543.50 538.04 527.61 540.50 508.00 540.50 C 488.39 540.50 472.50 538.04 472.50 535.00 C 472.50 531.96 488.39 529.50 508.00 529.50 C 527.61 529.50 543.50 531.96 543.50 535.00 Z" fill="#fdfaf5" fill-rule="nonzero" group-id="1,16" node-id="558" stroke="#231815" stroke-linecap="round" stroke-width="3" target-height="11" target-width="71" target-x="472.5" target-y="529.5"></path><path d="M 472.50 524.50 L 512.50 548.50" fill="none" group-id="1,16" node-id="560" stroke="#231815" stroke-linecap="round" stroke-width="3" target-height="24" target-width="40" target-x="472.5" target-y="524.5"></path><path d="M 480.50 522.50 L 524.50 545.50" fill="none" group-id="1,16" node-id="562" stroke="#231815" stroke-linecap="round" stroke-width="3" target-height="23" target-width="44" target-x="480.5" target-y="522.5"></path><path d="M 511.50 539.50 C 511.50 539.50 509.50 535.50 514.50 535.50 C 513.50 532.50 514.50 529.50 518.50 531.50 C 516.50 526.50 518.50 524.50 522.50 526.50 C 524.50 523.50 529.50 517.50 533.50 523.50 C 537.50 523.50 540.50 523.50 540.50 529.50 C 542.50 529.50 544.50 534.50 541.50 534.50 L 541.50 536.50 C 531.84 539.70 521.60 540.72 511.50 539.50 Z" fill="#ffffff" fill-rule="nonzero" group-id="1,16" node-id="564" stroke="#231815" stroke-linecap="round" stroke-width="3" target-height="23.223694" target-width="35" target-x="509.5" target-y="517.5"></path><path d="M 524.50 574.85 C 524.50 574.85 515.50 591.76 506.50 592.63 C 503.21 592.95 484.90 598.50 459.01 598.50 C 433.45 598.50 415.59 595.01 411.55 592.75 C 407.51 590.49 391.55 583.44 390.05 575.97" fill="#bcbcbc" fill-rule="nonzero" group-id="1,17" node-id="568" stroke="#231815" stroke-linecap="round" stroke-width="3" target-height="23.650024" target-width="134.45001" target-x="390.05" target-y="574.85"></path><path d="M 524.50 574.00 C 524.50 582.56 494.28 589.50 457.00 589.50 C 419.72 589.50 389.50 582.56 389.50 574.00 C 389.50 565.44 419.72 558.50 457.00 558.50 C 494.28 558.50 524.50 565.44 524.50 574.00 Z" fill="#e2e2e2" fill-rule="nonzero" group-id="1,17" node-id="570" stroke="#231815" stroke-linecap="round" stroke-width="3" target-height="31" target-width="135" target-x="389.5" target-y="558.5"></path><path d="M 403.50 542.32 C 403.50 542.32 392.50 534.50 399.50 531.50 C 406.50 528.50 407.69 539.13 407.69 539.13 C 407.69 539.13 404.50 523.50 413.50 525.50 C 422.50 527.50 414.50 536.85 414.50 536.85 C 414.50 536.85 421.50 525.50 426.50 530.50 C 431.50 535.50 421.17 538.43 421.17 538.43" fill="#cb3617" fill-rule="nonzero" group-id="1,17" node-id="572" stroke="#231815" stroke-linecap="round" stroke-width="3" target-height="18.820007" target-width="39" target-x="392.5" target-y="523.5"></path><path d="M 405.50 562.50 C 405.50 562.50 393.36 549.86 404.50 541.50 C 408.50 538.50 411.50 535.50 418.50 537.50 C 425.08 539.49 430.75 543.74 434.50 549.50 C 439.50 557.50 439.50 571.50 427.50 574.50 C 415.50 577.50 417.30 576.94 413.90 570.72" fill="#e15c3d" fill-rule="nonzero" group-id="1,17" node-id="574" stroke="#231815" stroke-linecap="round" stroke-width="3" target-height="42" target-width="46.140015" target-x="393.36" target-y="535.5"></path><path d="M 406.50 563.50 L 403.50 574.50 L 414.50 570.50 C 414.50 570.50 412.50 562.50 406.50 563.50 Z" fill="#cb3617" fill-rule="nonzero" group-id="1,17" node-id="576" stroke="#231815" stroke-linecap="round" stroke-width="3" target-height="12" target-width="11" target-x="403.5" target-y="562.5"></path><path d="M 418.50 545.50 L 416.50 556.50" fill="none" group-id="1,17" node-id="578" stroke="#231815" stroke-linecap="round" stroke-width="3" target-height="11" target-width="2" target-x="416.5" target-y="545.5"></path><path d="M 412.50 548.50 L 423.50 551.50" fill="none" group-id="1,17" node-id="580" stroke="#231815" stroke-linecap="round" stroke-width="3" target-height="3" target-width="11" target-x="412.5" target-y="548.5"></path><path d="M 452.50 564.50 C 452.50 564.50 427.50 560.50 433.50 577.50 C 439.50 594.50 457.50 578.50 456.50 574.50 C 455.50 570.50 456.50 565.50 452.50 564.50 Z" fill="#cb3617" fill-rule="nonzero" group-id="1,17" node-id="582" stroke="#231815" stroke-linecap="round" stroke-width="3" target-height="34" target-width="30" target-x="427.5" target-y="560.5"></path><path d="M 449.50 562.50 C 449.50 562.50 448.50 543.50 452.50 542.50 C 453.50 546.50 456.50 562.50 460.50 563.50 C 464.50 564.50 464.50 559.50 464.50 559.50 C 464.50 559.50 460.50 542.50 464.50 540.50 C 465.50 542.50 468.50 555.50 472.50 555.50 C 476.50 555.50 480.50 565.50 478.50 566.50 C 476.50 567.50 456.50 572.09 456.50 572.09 Z" fill="#fdfaf5" fill-rule="nonzero" group-id="1,17" node-id="584" stroke="#231815" stroke-linecap="round" stroke-width="3" target-height="31.590027" target-width="32" target-x="448.5" target-y="540.5"></path><path d="M 479.25 553.27 L 499.96 549.89 L 502.14 549.74 L 504.19 549.95 L 506.16 550.52 L 508.00 551.42 L 509.63 552.59 L 511.07 554.05 L 512.24 555.73 L 513.10 557.61 L 513.65 559.73 L 514.57 565.35 L 514.72 567.53 L 514.50 569.59 L 513.93 571.55 L 513.03 573.39 L 511.86 575.02 L 510.40 576.46 L 508.72 577.63 L 506.84 578.49 L 504.73 579.04 L 484.02 582.43 L 481.84 582.58 L 479.79 582.36 L 477.82 581.79 L 475.98 580.89 L 474.35 579.72 L 472.91 578.26 L 471.74 576.58 L 470.89 574.70 L 470.33 572.59 L 469.41 566.96 L 469.26 564.78 L 469.48 562.73 L 470.05 560.76 L 470.95 558.92 L 472.12 557.29 L 473.58 555.85 L 475.26 554.68 L 477.14 553.83 L 479.25 553.27 Z" fill="#cb3617" fill-rule="nonzero" group-id="1,17,27" node-id="588" stroke="#231815" stroke-linecap="round" stroke-width="3" target-height="32.84198" target-width="45.454865" target-x="469.26266" target-y="549.73645"></path><path d="M 474.50 568.50 L 454.50 572.50 C 454.50 572.50 449.50 564.50 444.50 568.50 C 439.50 572.50 442.50 579.50 449.50 577.50 C 449.50 577.50 442.50 580.50 447.50 585.50 C 447.50 585.50 458.50 591.50 456.50 578.50 C 465.50 576.50 476.50 574.50 476.50 574.50" fill="#fdfaf5" fill-rule="nonzero" group-id="1,17" node-id="591" stroke="#231815" stroke-linecap="round" stroke-width="3" target-height="27" target-width="37" target-x="439.5" target-y="564.5"></path><path d="M 474.50 563.50 C 474.50 563.50 473.50 569.50 478.50 570.50 C 478.50 570.50 475.50 574.50 478.50 576.50" fill="none" group-id="1,17" node-id="593" stroke="#231815" stroke-linecap="round" stroke-width="3" target-height="13" target-width="5" target-x="473.5" target-y="563.5"></path><path d="M 490.50 602.50 C 493.50 601.50 498.50 604.50 495.50 611.50 C 492.50 618.50 486.50 614.50 486.50 614.50 C 482.50 612.50 481.50 604.50 481.50 596.50 C 480.50 602.50 483.50 611.50 485.50 616.50 C 478.50 620.50 471.50 616.50 471.50 616.50 C 470.18 609.91 469.51 603.22 469.50 596.50 C 468.50 602.50 471.50 618.50 471.50 618.50 C 463.50 621.50 462.50 614.50 462.50 614.50 L 459.50 590.50 L 461.50 612.50 C 459.39 611.74 457.37 610.73 455.50 609.50 C 452.50 607.50 451.50 599.50 451.50 586.50 C 451.50 573.50 497.50 578.50 497.50 578.50 L 507.50 603.50 C 507.50 603.50 502.50 607.50 496.50 606.50" fill="#fbd2b4" fill-rule="nonzero" group-id="1" node-id="596" stroke="#231815" stroke-linecap="round" stroke-width="3" target-height="48" target-width="56" target-x="451.5" target-y="573.5"></path><path d="M 578.50 459.50 C 574.50 463.50 570.36 525.50 569.50 536.50 C 568.69 546.87 572.64 545.41 571.14 545.42 C 569.85 545.41 568.58 545.79 567.50 546.50 C 567.50 546.50 523.50 566.50 506.50 570.50 C 489.50 574.50 491.50 577.50 491.50 577.50 L 496.50 577.50 L 505.50 603.50 C 505.50 603.50 557.50 601.50 595.50 594.50 C 633.50 587.50 629.50 544.50 629.50 544.50 C 629.50 544.50 625.50 491.50 621.50 468.50 C 617.50 445.50 614.50 438.50 596.50 430.50 C 593.62 429.24 590.71 428.55 587.50 427.50" fill="#af4d47" fill-rule="nonzero" group-id="1" node-id="598" stroke="#231815" stroke-linecap="round" stroke-width="3" target-height="176" target-width="144" target-x="489.5" target-y="427.5"></path><path d="M 237.50 597.50 L 252.21 608.33 C 259.37 614.15 288.12 618.50 322.50 618.50 C 353.03 618.50 379.12 615.07 389.59 610.23 L 406.50 597.50" fill="#bcbcbc" fill-rule="nonzero" group-id="1,18" node-id="601" stroke="#231815" stroke-linecap="round" stroke-width="3" target-height="21" target-width="169" target-x="237.5" target-y="597.5"></path><path d="M 406.50 595.00 C 406.50 604.66 368.67 612.50 322.00 612.50 C 275.33 612.50 237.50 604.66 237.50 595.00 C 237.50 585.34 275.33 577.50 322.00 577.50 C 368.67 577.50 406.50 585.34 406.50 595.00 Z" fill="#e2e2e2" fill-rule="nonzero" group-id="1,18" node-id="603" stroke="#231815" stroke-linecap="round" stroke-width="3" target-height="35" target-width="169" target-x="237.5" target-y="577.5"></path><path d="M 367.50 590.50 C 367.50 590.50 358.50 589.50 355.50 589.50 C 357.50 593.50 347.50 604.50 346.50 604.50 C 348.50 603.50 348.50 594.50 347.50 590.50 C 346.50 586.50 342.50 587.50 340.50 587.50 C 342.50 591.50 335.50 602.50 332.50 605.50 C 332.50 599.44 334.45 590.50 331.50 587.50 C 330.50 586.50 327.23 586.74 326.50 586.50 C 327.50 590.50 322.50 601.50 319.50 603.50 C 320.26 601.22 320.28 592.00 318.50 587.50 C 317.50 586.50 315.50 586.50 314.50 586.50 C 316.50 591.50 307.50 601.50 305.50 602.50 C 308.50 597.50 305.50 584.50 305.50 584.50 L 304.50 580.50 C 304.50 580.50 308.50 579.50 307.50 576.50 C 306.50 573.50 301.50 565.50 299.50 565.50 C 297.50 565.50 310.50 560.50 313.50 576.50 L 316.50 577.50 C 316.50 577.50 324.50 568.50 321.50 563.50 C 324.50 563.50 328.50 567.50 326.50 577.50 C 328.11 578.08 329.79 578.41 331.50 578.50 C 331.50 578.50 339.50 570.50 337.50 564.50 C 340.50 566.50 342.50 576.50 340.50 580.50 C 342.86 580.60 345.21 580.93 347.50 581.50 C 347.50 581.50 354.50 570.50 351.50 566.50 C 354.50 567.50 358.50 577.50 355.50 582.50 L 365.50 584.50 Z" fill="#fdfaf5" fill-rule="nonzero" group-id="1,18" node-id="605" stroke="#231815" stroke-linecap="round" stroke-width="3" target-height="45" target-width="70" target-x="297.5" target-y="560.5"></path><path d="M 382.50 587.50 C 382.50 587.50 395.50 607.50 385.50 607.50 C 385.50 607.50 369.50 607.50 366.50 584.50 C 369.50 578.50 383.50 571.50 394.50 576.50 C 405.50 581.50 389.50 589.50 382.50 587.50 Z" fill="#3a76aa" fill-rule="nonzero" group-id="1,18" node-id="607" stroke="#231815" stroke-linecap="round" stroke-width="2.94" target-height="36" target-width="39" target-x="366.5" target-y="571.5"></path><path d="M 251.50 578.50 C 251.50 578.50 284.50 561.50 296.50 569.50 C 308.50 577.50 304.50 589.50 304.50 589.50 C 304.50 589.50 297.50 606.50 284.50 604.50 C 271.50 602.50 250.50 591.50 250.50 591.50 C 250.54 588.57 252.63 586.07 255.50 585.50 C 260.50 584.50 249.50 584.50 251.50 578.50 Z" fill="#3a76aa" fill-rule="nonzero" group-id="1,18" node-id="609" stroke="#231815" stroke-linecap="round" stroke-width="2.94" target-height="45" target-width="59" target-x="249.5" target-y="561.5"></path><path d="M 280.50 573.50 C 280.50 573.50 288.50 578.50 289.50 581.50" fill="none" group-id="1,18" node-id="611" stroke="#231815" stroke-linecap="round" stroke-width="3" target-height="8" target-width="9" target-x="280.5" target-y="573.5"></path><path d="M 290.50 573.50 C 290.50 573.50 282.50 575.50 279.50 579.50" fill="none" group-id="1,18" node-id="613" stroke="#231815" stroke-linecap="round" stroke-width="3" target-height="6" target-width="11" target-x="279.5" target-y="573.5"></path><path d="M 607.50 758.50 C 607.50 758.50 601.50 725.50 584.50 732.50 C 567.50 739.50 573.50 758.50 586.50 764.50 C 586.50 773.50 583.50 781.50 595.50 784.50 C 607.50 787.50 610.50 773.50 607.50 758.50 Z" fill="#e68d93" fill-rule="nonzero" group-id="1" node-id="616" stroke="#231815" stroke-linecap="round" stroke-width="3" target-height="62" target-width="43" target-x="567.5" target-y="725.5"></path><path d="M 612.69 757.42 C 612.69 757.42 610.49 723.95 628.69 726.61 C 646.89 729.27 645.69 749.16 634.53 758.14 C 636.72 766.87 641.53 773.90 630.66 779.73 C 619.79 785.56 613.43 772.70 612.69 757.42 Z" fill="#e68d93" fill-rule="nonzero" group-id="1" node-id="618" stroke="#231815" stroke-linecap="round" stroke-width="3" target-height="61.609985" target-width="36.400024" target-x="610.49" target-y="723.95"></path><path d="M 588.50 752.50 C 588.50 752.50 598.50 752.50 599.50 756.50" fill="none" group-id="1" node-id="620" stroke="#231815" stroke-linecap="round" stroke-width="3" target-height="4" target-width="11" target-x="588.5" target-y="752.5"></path><path d="M 594.50 771.50 C 594.50 771.50 600.50 768.50 600.50 763.50" fill="none" group-id="1" node-id="622" stroke="#231815" stroke-linecap="round" stroke-width="3" target-height="8" target-width="6" target-x="594.5" target-y="763.5"></path><path d="M 629.50 744.50 C 629.50 744.50 619.50 745.50 620.50 750.50" fill="none" group-id="1" node-id="624" stroke="#231815" stroke-linecap="round" stroke-width="3" target-height="6" target-width="10" target-x="619.5" target-y="744.5"></path><path d="M 629.50 766.50 C 629.50 766.50 623.50 763.50 622.50 758.50" fill="none" group-id="1" node-id="626" stroke="#231815" stroke-linecap="round" stroke-width="3" target-height="8" target-width="7" target-x="622.5" target-y="758.5"></path><path d="M 616.50 757.50 C 616.50 761.37 613.37 764.50 609.50 764.50 C 605.63 764.50 602.50 761.37 602.50 757.50 C 602.50 753.63 605.63 750.50 609.50 750.50 C 613.37 750.50 616.50 753.63 616.50 757.50 Z" fill="none" group-id="1" node-id="628" stroke="#231815" stroke-linecap="round" stroke-width="3" target-height="14" target-width="14" target-x="602.5" target-y="750.5"></path><path d="M 572.71 788.84 C 572.71 788.84 563.44 756.61 547.22 765.28 C 531.00 773.95 538.88 792.28 552.42 796.91 C 553.32 805.91 551.14 814.13 563.42 815.91 C 575.70 817.69 577.20 803.47 572.71 788.84 Z" fill="#e68d93" fill-rule="nonzero" group-id="1" node-id="630" stroke="#231815" stroke-linecap="round" stroke-width="3" target-height="61.080017" target-width="46.200012" target-x="531" target-y="756.61"></path><path d="M 577.77 787.25 C 577.77 787.25 572.23 754.17 590.59 754.99 C 608.95 755.81 609.76 775.73 599.59 785.78 C 602.64 794.25 608.17 800.78 597.90 807.64 C 587.63 814.50 580.00 802.38 577.77 787.25 Z" fill="#e68d93" fill-rule="nonzero" group-id="1" node-id="632" stroke="#231815" stroke-linecap="round" stroke-width="3" target-height="60.330017" target-width="37.53003" target-x="572.23" target-y="754.17"></path><path d="M 553.21 784.77 C 553.21 784.77 563.16 783.77 564.55 787.65" fill="none" group-id="1" node-id="634" stroke="#231815" stroke-linecap="round" stroke-width="3" target-height="3.880005" target-width="11.339966" target-x="553.21" target-y="783.77"></path><path d="M 561.08 803.08 C 561.08 803.08 566.75 799.49 566.25 794.52" fill="none" group-id="1" node-id="636" stroke="#231815" stroke-linecap="round" stroke-width="3" target-height="8.559998" target-width="5.669983" target-x="561.08" target-y="794.52"></path><path d="M 593.20 772.71 C 593.20 772.71 583.35 774.71 584.85 779.58" fill="none" group-id="1" node-id="638" stroke="#231815" stroke-linecap="round" stroke-width="3" target-height="6.869995" target-width="9.850037" target-x="583.35" target-y="772.71"></path><path d="M 595.40 794.60 C 595.40 794.60 589.13 792.21 587.64 787.34" fill="none" group-id="1" node-id="640" stroke="#231815" stroke-linecap="round" stroke-width="3" target-height="7.2599487" target-width="7.76001" target-x="587.64" target-y="787.34"></path><path d="M 581.60 787.65 C 581.60 791.52 578.47 794.65 574.60 794.65 C 570.73 794.65 567.60 791.52 567.60 787.65 C 567.60 783.78 570.73 780.65 574.60 780.65 C 578.47 780.65 581.60 783.78 581.60 787.65 Z" fill="#ffb047" fill-rule="nonzero" group-id="1" node-id="642" stroke="#231815" stroke-linecap="round" stroke-width="3" target-height="14" target-width="14" target-x="567.6" target-y="780.65"></path><path d="M 596.50 774.50 C 596.50 774.50 590.50 741.50 573.50 748.50 C 556.50 755.50 562.50 774.50 575.50 780.50 C 575.50 789.50 572.50 797.50 584.50 800.50 C 596.50 803.50 599.50 789.50 596.50 774.50 Z" fill="#e68d93" fill-rule="nonzero" group-id="1" node-id="644" stroke="#231815" stroke-linecap="round" stroke-width="3" target-height="62" target-width="43" target-x="556.5" target-y="741.5"></path><path d="M 601.69 773.42 C 601.69 773.42 599.49 739.95 617.69 742.61 C 635.89 745.27 634.69 765.16 623.53 774.14 C 625.72 782.87 630.53 789.90 619.66 795.73 C 608.79 801.56 602.43 788.70 601.69 773.42 Z" fill="#e68d93" fill-rule="nonzero" group-id="1" node-id="646" stroke="#231815" stroke-linecap="round" stroke-width="3" target-height="61.609985" target-width="36.400024" target-x="599.49" target-y="739.95"></path><path d="M 577.50 768.50 C 577.50 768.50 587.50 768.50 588.50 772.50" fill="none" group-id="1" node-id="648" stroke="#231815" stroke-linecap="round" stroke-width="3" target-height="4" target-width="11" target-x="577.5" target-y="768.5"></path><path d="M 583.50 787.50 C 583.50 787.50 589.50 784.50 589.50 779.50" fill="none" group-id="1" node-id="650" stroke="#231815" stroke-linecap="round" stroke-width="3" target-height="8" target-width="6" target-x="583.5" target-y="779.5"></path><path d="M 618.50 760.50 C 618.50 760.50 608.50 761.50 609.50 766.50" fill="none" group-id="1" node-id="652" stroke="#231815" stroke-linecap="round" stroke-width="3" target-height="6" target-width="10" target-x="608.5" target-y="760.5"></path><path d="M 618.50 782.50 C 618.50 782.50 612.50 779.50 611.50 774.50" fill="none" group-id="1" node-id="654" stroke="#231815" stroke-linecap="round" stroke-width="3" target-height="8" target-width="7" target-x="611.5" target-y="774.5"></path><path d="M 605.50 773.50 C 605.50 777.37 602.37 780.50 598.50 780.50 C 594.63 780.50 591.50 777.37 591.50 773.50 C 591.50 769.63 594.63 766.50 598.50 766.50 C 602.37 766.50 605.50 769.63 605.50 773.50 Z" fill="#ffb047" fill-rule="nonzero" group-id="1" node-id="656" stroke="#231815" stroke-linecap="round" stroke-width="3" target-height="14" target-width="14" target-x="591.5" target-y="766.5"></path><path d="M 652.59 761.00 C 652.59 761.00 661.59 728.67 643.20 727.58 C 624.81 726.49 622.00 746.17 631.07 757.23 C 627.16 765.33 620.97 771.23 630.47 779.15 C 639.97 787.07 648.76 775.78 652.59 761.00 Z" fill="#e68d93" fill-rule="nonzero" group-id="1" node-id="658" stroke="#231815" stroke-linecap="round" stroke-width="3" target-height="60.580017" target-width="40.620056" target-x="620.97" target-y="726.49"></path><path d="M 657.73 762.26 C 657.73 762.26 670.32 731.17 685.54 741.48 C 700.76 751.79 691.02 769.17 677.07 772.40 C 675.24 781.21 676.55 789.66 664.19 790.15 C 651.83 790.64 651.74 776.33 657.73 762.26 Z" fill="#e68d93" fill-rule="nonzero" group-id="1" node-id="660" stroke="#231815" stroke-linecap="round" stroke-width="3" target-height="59.47003" target-width="49.02002" target-x="651.74" target-y="731.17"></path><path d="M 638.10 747.30 C 638.10 747.30 647.10 751.65 646.26 755.68" fill="none" group-id="1" node-id="662" stroke="#231815" stroke-linecap="round" stroke-width="3" target-height="8.380005" target-width="9" target-x="638.1" target-y="747.3"></path><path d="M 635.23 767.00 C 635.23 767.00 641.94 766.91 644.11 762.41" fill="none" group-id="1" node-id="664" stroke="#231815" stroke-linecap="round" stroke-width="3" target-height="4.590027" target-width="8.880005" target-x="635.23" target-y="762.41"></path><path d="M 678.49 757.94 C 678.49 757.94 669.05 754.48 667.78 759.42" fill="none" group-id="1" node-id="666" stroke="#231815" stroke-linecap="round" stroke-width="3" target-height="4.9400024" target-width="10.709961" target-x="667.78" target-y="754.48"></path><path d="M 668.92 777.74 C 668.92 777.74 664.82 772.43 666.10 767.49" fill="none" group-id="1" node-id="668" stroke="#231815" stroke-linecap="round" stroke-width="3" target-height="10.25" target-width="4.0999756" target-x="664.82" target-y="767.49"></path><path d="M 661.83 760.94 C 661.83 764.81 658.70 767.94 654.83 767.94 C 650.96 767.94 647.83 764.81 647.83 760.94 C 647.83 757.07 650.96 753.94 654.83 753.94 C 658.70 753.94 661.83 757.07 661.83 760.94 Z" fill="#ffb047" fill-rule="nonzero" group-id="1" node-id="670" stroke="#231815" stroke-linecap="round" stroke-width="3" target-height="14" target-width="14" target-x="647.83" target-y="753.94"></path></g></svg>